<svg id="Ebene_1" data-name="Ebene 1" xmlns="http://www.w3.org/2000/svg" viewBox="0 0 283.46 283.46"><defs><style>.cls-1{fill:#fff;}.cls-2{fill:#1d1e1c;}</style></defs><title>Zeichenfläche 1</title><circle class="cls-1" cx="142.5" cy="115.91" r="110.99" transform="translate(-40.22 134.71) rotate(-45)"/><path class="cls-2" d="M142.61,228.32A112.42,112.42,0,1,1,255,115.91,112.53,112.53,0,0,1,142.61,228.32ZM142.61,6A109.94,109.94,0,1,0,252.54,115.91,110.06,110.06,0,0,0,142.61,6Z"/><path d="M151.1,126.61c-8.76-4.68-16-9.1-21.71-14L111,185.37c.31,12.24,3.51,22.56,9.14,30.2a102.4,102.4,0,0,0,64.22-6.36c3.19-7.12,4.82-15.84,4.82-25.85C189.14,155.89,178.27,141.1,151.1,126.61Z"/><path d="M104.54,210.75c2.53,1,5.1,1.95,7.73,2.76a55.94,55.94,0,0,1-5-13.72Z"/><path d="M125.05,108.55c-8.7-9.13-12.89-20.3-12.89-37.48,0-23.34,10.24-43.54,33.86-46.18l2.91-11.61c-2.09-.12-4.19-.21-6.32-.21A102.34,102.34,0,0,0,60.89,53.71l17.2,71c7.37,30.32,16,65.23,19.7,83,.69.34,1.4.65,2.1,1,3.65-17.92,14.56-57.85,21.49-85.57Z"/><path d="M154.43,13.77,151.69,24.6c27,.13,38.65,19.41,38.65,46.78h-5.13c-.3-28.07-12.68-42-34.11-42l-.64,0a47.93,47.93,0,0,0-5.69.45C124.61,33,117.6,51.26,117.6,70.77c0,14.12,2.53,23.62,9,31.58.52.62,4.25,4.51,4.25,4.51,5.36,5,12.57,9.55,22.06,14.62,30.49,16.3,41.66,31.7,41.66,61.88a75.62,75.62,0,0,1-3.1,22.35,102.51,102.51,0,0,0-37-191.94Z"/><path d="M40.11,115.58A102.43,102.43,0,0,0,92,204.69l-35.25-145A102,102,0,0,0,40.11,115.58Z"/><path class="cls-1" d="M30.46,245.71h2.08l9.13,20.21c1.43,3.13,2.8,6.13,4,8.87H46c1.24-2.74,2.48-5.74,3.91-8.87L59,245.71h2L46.76,276.87h-2Z"/><path class="cls-1" d="M72.31,268.53c0-4.69,3.52-7,7.43-8.08v-.27c-3.26-1.56-5.61-3.78-5.61-7.3,0-5.21,5.09-7.95,12-7.95a18.78,18.78,0,0,1,12.51,4.3l-1.17,1.44a16.76,16.76,0,0,0-11.34-3.91c-6,0-9.91,2-9.91,6.25,0,4,4,6.52,12,6.52H91v1.83H87.3c-8.15,0-12.91,2.41-12.91,7.1s4.7,7.37,11.74,7.37c4.62,0,8.54-1,12.25-4.43l1.18,1.43c-3.92,3.65-8.41,4.83-13.5,4.83C77.52,277.66,72.31,274.14,72.31,268.53Z"/><path class="cls-1" d="M122,259.92l-1.7.79-11.21-15h2.35Zm13.69,16.95h-15c-6.39,0-10.88-2.21-10.88-8.34s4.62-8.74,10.36-8.74h13.56V245.71h2Zm-14.34-15.25c-5.81,0-9.46,2.28-9.46,6.91s3.65,6.52,9.46,6.52h12.38V261.62Z"/><path class="cls-1" d="M148.18,275.83l25.55-28.29H150.92v-1.83h25.94v1l-25.55,28.29h26.34v1.82H148.18Z"/><path class="cls-1" d="M187.29,262.79a20,20,0,0,1,7-15.12v-.13h-7.82v-1.83h11.21V247a18,18,0,0,0-8.34,15.38c0,7,4.49,13.43,12.77,13.43s12.78-6.39,12.78-13.43A18,18,0,0,0,206.59,247v-1.31H217.8v1.83H210v.13a20,20,0,0,1,7,15.12c0,7.83-5.41,14.87-14.87,14.87S187.29,270.62,187.29,262.79Z"/><path class="cls-1" d="M227.31,272.7l1.18-1.56c3.39,2.73,7.49,4.69,14.34,4.69s10.3-3.13,10.3-6.65c0-3-1-5.48-11.47-7.56-7.83-1.57-12.52-4-12.52-8.61,0-4.3,3.58-8.08,11.86-8.08a21.3,21.3,0,0,1,11.74,3.78l-1.18,1.57a17.31,17.31,0,0,0-10.69-3.52c-7.36,0-9.65,3-9.65,6.12,0,3.52,3.39,5.35,10.7,6.85,11,2.28,13.29,4.76,13.29,9.32s-4.56,8.61-12.51,8.61A26.34,26.34,0,0,1,227.31,272.7Z"/></svg>