<svg id="Ebene_1" data-name="Ebene 1" xmlns="http://www.w3.org/2000/svg" viewBox="0 0 283.46 283.46"><defs><style>.cls-1{fill:#fff;}</style></defs><title>Zeichenfläche 1</title><path class="cls-1" d="M142.68,228A112.32,112.32,0,1,1,255,115.71,112.44,112.44,0,0,1,142.68,228Zm0-222.16A109.84,109.84,0,1,0,252.52,115.71,110,110,0,0,0,142.68,5.87Z"/><path class="cls-1" d="M155,12.71l-5.44-.5c-2.27-.15-4.55-.25-6.86-.25A103.66,103.66,0,0,0,61.19,51.58L57,57.22A103.67,103.67,0,0,0,93.45,207.09l11,5.12a101.25,101.25,0,0,0,10,3.4c33.23,9.64,63.4-1.08,75.31-7.43A103.74,103.74,0,0,0,155,12.71Zm-111.09,103A98.25,98.25,0,0,1,58.64,63.88L91.82,200.41A98.81,98.81,0,0,1,43.89,115.75ZM101,205.29c-1.1-.52-2.19-1.06-3.28-1.62-3.94-18.34-11.92-50.62-18.79-78.86l-16.21-67a98.69,98.69,0,0,1,80-40.88c1.89,0,3.76.06,5.63.17l-2.26,9c-23.35,2.61-33.46,22.56-33.46,45.63,0,17,4.14,28,12.73,37l-3.62,14.46C115.16,149.41,105,186.57,101,205.29Zm4.69,2,2.11-8.36a58.14,58.14,0,0,0,3.38,10.39C109.32,208.73,107.48,208.06,105.68,207.33Zm79.56-2.44a98.83,98.83,0,0,1-66.84,6.63c-4.3-7.17-6.73-16.27-7-26.81l18.2-71.87c5.67,4.82,12.8,9.19,21.46,13.82,26.84,14.31,37.58,28.93,37.58,56.07A66.27,66.27,0,0,1,185.24,204.89Zm6.69-3.55A78.83,78.83,0,0,0,194,182.73c0-29.83-11-45-41.16-61.15-9.38-5-16.51-9.52-21.8-14.44,0,0-3.85-3.91-4.2-4.46-6.39-7.87-8.9-17.25-8.9-31.2,0-19.28,6.93-37.32,26.85-40.4a43.87,43.87,0,0,1,5.63-.45l.63,0c21.18,0,33.41,13.72,33.7,41.46h5.07c0-27-11.55-46.09-38.19-46.22l2.09-8.26a98.75,98.75,0,0,1,38.19,183.75Z"/><path class="cls-1" d="M30.46,245.71h2.08l9.13,20.21c1.43,3.13,2.8,6.13,4,8.87H46c1.24-2.74,2.48-5.74,3.91-8.87L59,245.71h2L46.76,276.87h-2Z"/><path class="cls-1" d="M72.31,268.53c0-4.69,3.52-7,7.43-8.08v-.27c-3.26-1.56-5.61-3.78-5.61-7.3,0-5.21,5.09-7.95,12-7.95a18.78,18.78,0,0,1,12.51,4.3l-1.17,1.44a16.76,16.76,0,0,0-11.34-3.91c-6,0-9.91,2-9.91,6.25,0,4,4,6.52,12,6.52H91v1.83H87.3c-8.15,0-12.91,2.41-12.91,7.1s4.7,7.37,11.74,7.37c4.62,0,8.54-1,12.25-4.43l1.18,1.43c-3.92,3.65-8.41,4.83-13.5,4.83C77.52,277.66,72.31,274.14,72.31,268.53Z"/><path class="cls-1" d="M122,259.92l-1.7.79-11.21-15h2.35Zm13.69,16.95h-15c-6.39,0-10.88-2.21-10.88-8.34s4.62-8.74,10.36-8.74h13.56V245.71h2Zm-14.34-15.25c-5.81,0-9.46,2.28-9.46,6.91s3.65,6.52,9.46,6.52h12.38V261.62Z"/><path class="cls-1" d="M148.18,275.83l25.55-28.29H150.92v-1.83h25.94v1l-25.55,28.29h26.34v1.82H148.18Z"/><path class="cls-1" d="M187.29,262.79a20,20,0,0,1,7-15.12v-.13h-7.82v-1.83h11.21V247a18,18,0,0,0-8.34,15.38c0,7,4.49,13.43,12.77,13.43s12.78-6.39,12.78-13.43A18,18,0,0,0,206.59,247v-1.31H217.8v1.83H210v.13a20,20,0,0,1,7,15.12c0,7.83-5.41,14.87-14.87,14.87S187.29,270.62,187.29,262.79Z"/><path class="cls-1" d="M227.31,272.7l1.18-1.56c3.39,2.73,7.49,4.69,14.34,4.69s10.3-3.13,10.3-6.65c0-3-1-5.48-11.47-7.56-7.83-1.57-12.52-4-12.52-8.61,0-4.3,3.58-8.08,11.86-8.08a21.3,21.3,0,0,1,11.74,3.78l-1.18,1.57a17.31,17.31,0,0,0-10.69-3.52c-7.36,0-9.65,3-9.65,6.12,0,3.52,3.39,5.35,10.7,6.85,11,2.28,13.29,4.76,13.29,9.32s-4.56,8.61-12.51,8.61A26.34,26.34,0,0,1,227.31,272.7Z"/></svg>